<?xml version="1.0" encoding="UTF-8" standalone="no"?>
<!-- Created with Inkscape (http://www.inkscape.org/) -->

<svg
   width="61.15517mm"
   height="2.9062958mm"
   viewBox="0 0 61.15517 2.9062958"
   version="1.1"
   id="svg337"
   inkscape:export-filename="bitmap.svg"
   inkscape:export-xdpi="96"
   inkscape:export-ydpi="96"
   xmlns:inkscape="http://www.inkscape.org/namespaces/inkscape"
   xmlns:sodipodi="http://sodipodi.sourceforge.net/DTD/sodipodi-0.dtd"
   xmlns="http://www.w3.org/2000/svg"
   xmlns:svg="http://www.w3.org/2000/svg">
  <sodipodi:namedview
     id="namedview339"
     pagecolor="#ffffff"
     bordercolor="#666666"
     borderopacity="1.0"
     inkscape:showpageshadow="2"
     inkscape:pageopacity="0.0"
     inkscape:pagecheckerboard="0"
     inkscape:deskcolor="#d1d1d1"
     inkscape:document-units="mm"
     showgrid="false" />
  <defs
     id="defs334" />
  <g
     inkscape:label="Layer 1"
     inkscape:groupmode="layer"
     id="layer1"
     transform="translate(-35.358151,-139.38331)">
    <path
       d="m 96.513325,139.62297 c -1.265294,-0.45861 -2.373489,-0.13076 -3.48168,-0.0602 -0.53387,0.0339 -1.0668,0.079 -1.60067,0.11666 -0.04186,0.003 -0.09972,0.0118 -0.125119,-0.0103 -0.507059,-0.44638 -1.039989,-0.0738 -1.561631,-0.0579 -0.348072,0.0108 -0.697558,-0.0207 -1.044692,0.002 -0.631708,0.0404 -1.259653,0.13594 -1.891831,0.15617 -1.397,0.0466 -2.79588,0.0616 -4.193822,0.087 -1.457678,0.0268 -2.915356,0.055 -4.37303,0.0743 -0.857487,0.0113 -1.709329,0.0527 -2.562109,-0.17733 -0.413925,-0.11147 -0.889469,0.01 -1.337264,0.0202 -1.254478,0.0287 -2.509425,0.0705 -3.763903,0.0748 -0.514114,0.002 -1.0287,-0.11948 -1.542345,-0.11242 -0.908286,0.0127 -1.815158,0.0908 -2.722975,0.12418 -1.049867,0.0381 -2.099733,0.0687 -3.150069,0.0814 -1.385242,0.016 -2.770954,-0.004 -4.156665,0.0221 -0.519289,0.0104 -1.035755,0.12888 -1.555983,0.16416 -1.542344,0.10395 -3.085161,0.20743 -4.629386,0.27799 -0.676865,0.031 -1.359842,-0.0522 -2.037645,-0.0287 -2.028236,0.0715 -4.057887,0.13359 -6.082358,0.27094 -1.461912,0.0988 -2.912065,0.35936 -4.373976,0.46002 -1.352314,0.0927 -2.713098,0.0564 -4.069175,0.10583 -0.261056,0.009 -0.535281,0.11948 -0.769056,0.24648 -0.09172,0.0499 -0.162278,0.30621 -0.1143,0.40922 0.08091,0.17168 0.266231,0.42192 0.404051,0.42004 1.480255,-0.024 2.961922,-0.0579 4.439355,-0.15475 1.38665,-0.0913 2.766717,-0.30574 4.153839,-0.38476 1.930873,-0.11007 3.865506,-0.15523 5.799667,-0.20838 1.541406,-0.0428 3.084689,-0.0324 4.625623,-0.0875 2.718272,-0.0969 5.4356,-0.23424 8.153873,-0.33866 1.339144,-0.0513 2.680169,-0.0809 4.020256,-0.0927 1.782233,-0.0146 3.564466,-0.0146 5.346227,0.002 1.404056,0.0132 2.807173,0.0851 4.211229,0.0875 1.270469,0.002 2.540938,-0.0701 3.81188,-0.0809 0.817972,-0.007 1.636889,0.0767 2.453923,0.0531 1.697566,-0.0489 3.393722,-0.16745 5.091289,-0.20508 0.715433,-0.0155 1.4351,0.0898 2.150061,0.16416 0.234717,0.0245 0.471311,0.20226 0.690033,0.17451 0.528697,-0.0663 1.1811,0 1.535762,-0.39229 0.6985,-0.7747 1.532466,-0.41581 2.322689,-0.46473 0.517878,-0.0315 1.065389,0.13782 1.544694,-0.12135 0.176861,-0.0946 0.248355,-0.38524 0.385233,-0.61666 v -4.7e-4"
       style="fill:#231f20;fill-opacity:1;fill-rule:nonzero;stroke:none;stroke-width:0.0352778"
       id="path322" />
  </g>
</svg>
